<svg xmlns="http://www.w3.org/2000/svg" xmlns:svg="http://www.w3.org/2000/svg" xmlns:xlink="http://www.w3.org/1999/xlink" id="svg2" x="0" y="0" enable-background="new 172 -170.9 956.7 1133.9" version="1.1" viewBox="172 -170.9 956.7 1133.9" xml:space="preserve"><rect id="rect4116" width="956.6" height="1133.8" x="172.1" y="-170.8" fill="#FFF" stroke="#000" stroke-width=".025"/><g id="g3906" transform="translate(-710.45173,-217.16542)"><text font-family="'ArialMT'" font-size="40.27" transform="matrix(1 0 0 1 974.3339 579.1302)">TC</text><text fill="none" stroke="#00F" stroke-width=".106" font-family="'ArialMT'" font-size="40.27" transform="matrix(1 0 0 1 974.3339 579.1302)">TC</text><g id="g3903"><path id="path3847" fill="none" stroke="#00F" stroke-width=".106" d="M912.2,808.8h353.9 V489.4H1231v-35.2H912.8L912.2,808.8z"/></g></g><g id="g3896" transform="translate(-343.04542,-606.07998)"><g id="g3861" transform="translate(372.72727,-147.27273)"><rect id="rect3129" width="353.3" height="353.3" x="172.1" y="609.6" fill="#FFF" stroke="#00F" stroke-width=".106"/><path id="path3859" fill="none" stroke="#00F" stroke-width=".191" d="M225.1,927.5c0,9.8-7.9,17.7-17.7,17.7s-17.7-7.9-17.7-17.7c0-9.8,7.9-17.7,17.7-17.7C217.2,909.9,225.1,917.8,225.1,927.5z"/></g><text font-family="'ArialMT'" font-size="40.274" transform="matrix(1 0 0 1 569.0511 542.3233)">CB-S</text><text fill="none" stroke="#00F" stroke-width=".106" font-family="'ArialMT'" font-size="40.274" transform="matrix(1 0 0 1 569.0511 542.3233)">CB-S</text></g><g id="g3958" transform="translate(-597.42846,-366.66677)"><rect id="rect3930" width="283.3" height="63.7" x="1165" y="222.7" fill="none" stroke="#00F" stroke-width=".106"/><text font-family="'ArialMT'" font-size="40" transform="matrix(1 0 0 1 1179.6924 269.4102)">TCG1</text><text fill="none" stroke="#00F" stroke-width=".106" font-family="'ArialMT'" font-size="40" transform="matrix(1 0 0 1 1179.6924 269.4102)">TCG1</text></g><g id="g3963" transform="translate(-597.42926,-360.13013)"><rect id="rect3932" width="283.3" height="70.7" x="1165" y="292.6" fill="none" stroke="#00F" stroke-width=".106"/><text font-family="'ArialMT'" font-size="40" transform="matrix(1 0 0 1 1177.1282 339.923)">TCG2</text><text fill="none" stroke="#00F" stroke-width=".106" font-family="'ArialMT'" font-size="40" transform="matrix(1 0 0 1 1177.1282 339.923)">TCG2</text></g><g id="g3968" transform="translate(-597.42297,-356.16441)"><rect id="rect3934" width="251.5" height="70.7" x="1165" y="372.1" fill="none" stroke="#00F" stroke-width=".106"/><text font-family="'ArialMT'" font-size="40" transform="matrix(1 0 0 1 1183.5386 423.2564)">TCG3</text><text fill="none" stroke="#00F" stroke-width=".106" font-family="'ArialMT'" font-size="40" transform="matrix(1 0 0 1 1183.5386 423.2564)">TCG3</text></g><g id="g3973" transform="translate(-597.42297,-354.76194)"><rect id="rect3936" width="251.5" height="70.7" x="1165" y="454.1" fill="none" stroke="#00F" stroke-width=".106"/><text font-family="'ArialMT'" font-size="40" transform="matrix(1 0 0 1 1182.2565 504.0256)">TCG4</text><text fill="none" stroke="#00F" stroke-width=".106" font-family="'ArialMT'" font-size="40" transform="matrix(1 0 0 1 1182.2565 504.0256)">TCG4</text></g><text font-family="'ArialMT'" font-size="18" transform="matrix(1 0 0 1 183.9048 884.4286)">OpenTempescope1.0.0 (part 2/2) 2014/11/29</text><text font-family="'ArialMT'" font-size="18" transform="matrix(1 0 0 1 183.9048 906.9286)">Ken Kawamoto</text><text font-family="'ArialMT'" font-size="18" transform="matrix(1 0 0 1 183.9048 929.4287)">ken@kawamoto.co.uk</text><text font-family="'ArialMT'" font-size="18" transform="matrix(1 0 0 1 183.9048 951.9287)">Released under Creative Commons Attribution-ShareAlike 3.0a</text></svg>