<svg xmlns="http://www.w3.org/2000/svg" xmlns:svg="http://www.w3.org/2000/svg" xmlns:xlink="http://www.w3.org/1999/xlink" id="svg2" x="0" y="0" enable-background="new 261 -578.8 1133.9 1948.8" version="1.1" viewBox="261 -578.8 1133.9 1948.8" xml:space="preserve"><rect id="rect4116" width="1132.8" height="1947.8" x="261.5" y="-578.3" fill="#FFF" stroke="#000" stroke-width=".035"/><g id="g4118" transform="matrix(1.0068569,0,0,1.0068568,1015.3071,387.46496)"><g id="g3883"><rect id="rect2985" width="365" height="365" x="-133" y="124.5" fill="#FFF" stroke="#00F" stroke-width=".113"/></g><text font-family="'ArialMT'" font-size="40.274" transform="matrix(0.9932 0 0 0.9932 -71.8361 248.4287)">C</text><text fill="none" stroke="#00F" stroke-width=".113" font-family="'ArialMT'" font-size="40.274" transform="matrix(0.9932 0 0 0.9932 -71.8361 248.4287)">C</text></g><g id="g3959" transform="matrix(1.0136412,0,0,1.0046766,1033.6508,-1455.6502)"><rect id="rect3953" width="362.6" height="1057" x="-19.8" y="881.9" fill="#FFF" stroke="#00F" stroke-width=".112"/><text font-family="'ArialMT'" font-size="40.187" transform="matrix(0.9953 0 0 0.9953 30.9736 967.2946)">FC</text><text fill="none" stroke="#00F" stroke-width=".112" font-family="'ArialMT'" font-size="40.187" transform="matrix(0.9953 0 0 0.9953 30.9736 967.2946)">FC</text></g><g id="g3991" transform="matrix(1.0136412,0,0,1.0046743,528.60935,-1227.3138)"><g id="g3964" transform="translate(127.27272,-227.27273)"><rect id="rect3966" width="362.6" height="1057" x="-19.8" y="881.9" fill="#FFF" stroke="#00F" stroke-width=".112"/><text font-family="'ArialMT'" font-size="40.187" transform="matrix(0.9953 0 0 0.9953 30.9739 967.2961)">BC</text><text fill="none" stroke="#00F" stroke-width=".112" font-family="'ArialMT'" font-size="40.187" transform="matrix(0.9953 0 0 0.9953 30.9739 967.2961)">BC</text></g></g><g id="g4003" transform="matrix(0,1.0138577,-1.0045639,0,1208.575,399.30184)"><rect id="rect3997" width="1047.5" height="351.7" x="140.7" y="211.6" fill="#FFF" stroke="#00F" stroke-width=".112" transform="matrix(2.578893e-06 1 -1 2.578893e-06 1051.9226 -276.9715)"/><text font-family="'ArialMT'" font-size="40.183" transform="matrix(0.9955 0 0 0.9955 541.3289 68.5968)">SC-L</text><text fill="none" stroke="#00F" stroke-width=".112" font-family="'ArialMT'" font-size="40.183" transform="matrix(0.9955 0 0 0.9955 541.3289 68.5968)">SC-L</text></g><g id="g4111" transform="matrix(0,-1.0040529,1.0078553,0,-937.43413,692.53981)"><rect id="rect4105" width="182.5" height="350.6" x="-88" y="1130.9" fill="#FFF" stroke="#00F" stroke-width=".113" transform="matrix(-2.547107e-06 -1 1 -2.547107e-06 -1302.9746 1309.4528)"/><text font-family="'ArialMT'" font-size="40.314" transform="matrix(0.9922 0 0 0.9922 -124.6863 1296.4657)">CB-T</text><text fill="none" stroke="#00F" stroke-width=".113" font-family="'ArialMT'" font-size="40.314" transform="matrix(0.9922 0 0 0.9922 -124.6863 1296.4657)">CB-T</text></g><g id="g3871" transform="matrix(0,-1,1,0,-154.5959,239.20896)"><text font-family="'ArialMT'" font-size="40" transform="matrix(0 1 -1 0 750.8347 471.4778)">SC-R</text><text fill="none" stroke="#00F" stroke-width=".113" font-family="'ArialMT'" font-size="40" transform="matrix(0 1 -1 0 750.8347 471.4778)">SC-R</text><g id="g3828" transform="translate(64.306408,-528.74157)"><g id="g4389" transform="matrix(0,1,-1,0,238.85584,-542.01281)"><path id="rect4384" fill="none" stroke="#00F" stroke-width=".113" d="M1501.8-505.7 v708.4h176.6v353.7h176.9V-505.7H1501.8z"/></g><path id="path3818" fill="none" stroke="#00F" stroke-width=".074" d="M15.2,1221.3c0,23.4-19,42.4-42.4,42.4s-42.4-19-42.4-42.4c0-23.4,19-42.4,42.4-42.4S15.2,1197.9,15.2,1221.3z"/><path id="path3820" fill="none" stroke="#00F" stroke-width=".6" d="M-57.3,1256.7c0,2.9-2.4,5.3-5.3,5.3c-2.9,0-5.3-2.4-5.3-5.3s2.4-5.3,5.3-5.3S-57.3,1253.8-57.3,1256.7z"/><path id="path3822" fill="none" stroke="#00F" stroke-width=".6" d="M-57.3,1185.8c0,2.9-2.4,5.3-5.3,5.3c-2.9,0-5.3-2.4-5.3-5.3c0-2.9,2.4-5.3,5.3-5.3S-57.3,1182.9-57.3,1185.8z"/><path id="path3824" fill="none" stroke="#00F" stroke-width=".6" d="M13.6,1256.7c0,2.9-2.4,5.3-5.3,5.3s-5.3-2.4-5.3-5.3s2.4-5.3,5.3-5.3C11.2,1251.4,13.6,1253.8,13.6,1256.7z"/><path id="path3826" fill="none" stroke="#00F" stroke-width=".6" d="M13.6,1185.8c0,2.9-2.4,5.3-5.3,5.3s-5.3-2.4-5.3-5.3c0-2.9,2.4-5.3,5.3-5.3C11.2,1180.6,13.6,1182.9,13.6,1185.8z"/></g></g><g id="g3886" transform="translate(-962.00751,-371.06732)"><rect id="rect3853" width="368.4" height="368.4" x="1450.8" y="883.8" fill="#FFF" stroke="#00F" stroke-width=".113"/><text font-family="'ArialMT'" font-size="40.27" transform="matrix(1 0 0 1 1498.3339 954.3843)">B</text></g><g id="g3891" transform="translate(-1229.6042,-1126.9783)"><rect id="rect3865" width="141.5" height="354.1" x="1517.4" y="1274.9" fill="#FFF" stroke="#00F" stroke-width=".113"/><text font-family="'ArialMT'" font-size="40.27" transform="matrix(1 0 0 1 1548.3339 1374.3843)">WG</text></g><rect id="rect3912" width="10.3" height="6.8" x="1286.9" y="541.5" fill="none" stroke="#00F" stroke-width=".281"/><rect id="rect3914" width="10.3" height="6.8" x="1286.9" y="553.3" fill="none" stroke="#00F" stroke-width=".281"/><rect id="rect3916" width="10.3" height="6.8" x="1286.9" y="565.1" fill="none" stroke="#00F" stroke-width=".281"/><rect id="rect3918" width="10.3" height="6.8" x="1286.9" y="577.8" fill="none" stroke="#00F" stroke-width=".281"/><rect id="rect3922" width="10.3" height="6.8" x="1306.9" y="541.5" fill="none" stroke="#00F" stroke-width=".281"/><rect id="rect3924" width="10.3" height="6.8" x="1306.9" y="553.3" fill="none" stroke="#00F" stroke-width=".281"/><rect id="rect3926" width="10.3" height="6.8" x="1306.9" y="565.1" fill="none" stroke="#00F" stroke-width=".281"/><rect id="rect3928" width="10.3" height="6.8" x="1306.9" y="577.8" fill="none" stroke="#00F" stroke-width=".281"/><text font-family="'ArialMT'" font-size="40" transform="matrix(1 0 0 1 1332.0256 576.4102)">K</text><text font-family="'ArialMT'" font-size="20" transform="matrix(1 0 0 1 277.6667 1280.4167)">OpenTempescope1.0.0 (part 1/2) 2014/11/29</text><text font-family="'ArialMT'" font-size="20" transform="matrix(1 0 0 1 277.6667 1305.4167)">Ken Kawamoto</text><text font-family="'ArialMT'" font-size="20" transform="matrix(1 0 0 1 277.6667 1330.4167)">ken@kawamoto.co.uk</text><text font-family="'ArialMT'" font-size="20" transform="matrix(1 0 0 1 277.6667 1355.4167)">Released under Creative Commons Attribution-ShareAlike 3.0a</text></svg>